<svg width="237" height="264" viewBox="0 0 237 264" fill="none" xmlns="http://www.w3.org/2000/svg">
  <path d="M0 8C0 3.58172 3.58172 0 8 0H12.6699V12.6H0V8Z" fill="#004C79" />
  <path d="M16.165 0H36.9999C41.4182 0 45 3.58172 45 8V12.6H16.165V0Z" fill="#004C79" />
  <path d="M0 32.4H28.8349V45H8C3.58173 45 0 41.4183 0 37V32.4Z" fill="#004C79" />
  <path d="M32.3301 32.4H45V37C45 41.4183 41.4182 45 37 45H32.3301V32.4Z" fill="#004C79" />
  <rect x="32.3301" y="16.2001" width="12.6699" height="12.6" fill="#004C79" />
  <rect x="16.165" y="16.2001" width="12.6699" height="12.6" fill="#00CAF2" />
  <rect y="16.2001" width="12.6699" height="12.6" fill="#004C79" />
  <path d="M72.683 255.468C71.201 255.468 69.927 255.052 68.861 254.22C67.795 253.388 67.262 252.088 67.262 250.32C67.262 248.24 68.237 246.667 70.187 245.601C72.137 244.509 75.192 243.729 79.352 243.261C79.378 242.299 79.274 241.376 79.04 240.492C78.806 239.582 78.364 238.828 77.714 238.23C77.09 237.632 76.154 237.333 74.906 237.333C73.658 237.333 72.514 237.58 71.474 238.074C70.434 238.568 69.589 239.049 68.939 239.517L68.159 238.23C68.601 237.918 69.173 237.58 69.875 237.216C70.577 236.826 71.37 236.501 72.254 236.241C73.164 235.955 74.126 235.812 75.14 235.812C76.622 235.812 77.792 236.137 78.65 236.787C79.508 237.437 80.119 238.308 80.483 239.4C80.873 240.466 81.068 241.675 81.068 243.027V255H79.586L79.43 252.582H79.313C78.351 253.336 77.311 254.012 76.193 254.61C75.075 255.182 73.905 255.468 72.683 255.468ZM72.995 253.986C74.061 253.986 75.088 253.726 76.076 253.206C77.09 252.686 78.182 251.932 79.352 250.944V244.587C76.778 244.899 74.737 245.302 73.229 245.796C71.721 246.29 70.642 246.914 69.992 247.668C69.342 248.396 69.017 249.254 69.017 250.242C69.017 251.594 69.407 252.556 70.187 253.128C70.993 253.7 71.929 253.986 72.995 253.986ZM95.1162 255.468C92.7502 255.468 90.8652 254.623 89.4612 252.933C88.0572 251.243 87.3552 248.825 87.3552 245.679C87.3552 243.651 87.7322 241.909 88.4862 240.453C89.2662 238.971 90.2802 237.827 91.5282 237.021C92.8022 236.215 94.1802 235.812 95.6622 235.812C96.8062 235.812 97.7942 236.02 98.6262 236.436C99.4842 236.826 100.381 237.385 101.317 238.113L101.239 234.681V226.959H102.955V255H101.473L101.317 252.582H101.2C100.446 253.336 99.5492 254.012 98.5092 254.61C97.4952 255.182 96.3642 255.468 95.1162 255.468ZM95.3502 253.947C96.3902 253.947 97.3782 253.687 98.3142 253.167C99.2762 252.621 100.251 251.854 101.239 250.866V239.751C100.251 238.867 99.3152 238.243 98.4312 237.879C97.5732 237.515 96.6892 237.333 95.7792 237.333C94.5312 237.333 93.4132 237.71 92.4252 238.464C91.4372 239.192 90.6442 240.18 90.0462 241.428C89.4742 242.676 89.1882 244.093 89.1882 245.679C89.1882 248.149 89.7212 250.151 90.7872 251.685C91.8532 253.193 93.3742 253.947 95.3502 253.947ZM115.394 255.468C113.912 255.468 112.638 255.052 111.572 254.22C110.506 253.388 109.973 252.088 109.973 250.32C109.973 248.24 110.948 246.667 112.898 245.601C114.848 244.509 117.903 243.729 122.063 243.261C122.089 242.299 121.985 241.376 121.751 240.492C121.517 239.582 121.075 238.828 120.425 238.23C119.801 237.632 118.865 237.333 117.617 237.333C116.369 237.333 115.225 237.58 114.185 238.074C113.145 238.568 112.3 239.049 111.65 239.517L110.87 238.23C111.312 237.918 111.884 237.58 112.586 237.216C113.288 236.826 114.081 236.501 114.965 236.241C115.875 235.955 116.837 235.812 117.851 235.812C119.333 235.812 120.503 236.137 121.361 236.787C122.219 237.437 122.83 238.308 123.194 239.4C123.584 240.466 123.779 241.675 123.779 243.027V255H122.297L122.141 252.582H122.024C121.062 253.336 120.022 254.012 118.904 254.61C117.786 255.182 116.616 255.468 115.394 255.468ZM115.706 253.986C116.772 253.986 117.799 253.726 118.787 253.206C119.801 252.686 120.893 251.932 122.063 250.944V244.587C119.489 244.899 117.448 245.302 115.94 245.796C114.432 246.29 113.353 246.914 112.703 247.668C112.053 248.396 111.728 249.254 111.728 250.242C111.728 251.594 112.118 252.556 112.898 253.128C113.704 253.7 114.64 253.986 115.706 253.986ZM131.626 263.463V236.28H133.108L133.264 238.62H133.381C134.291 237.892 135.292 237.242 136.384 236.67C137.476 236.098 138.594 235.812 139.738 235.812C142.234 235.812 144.106 236.683 145.354 238.425C146.602 240.141 147.226 242.455 147.226 245.367C147.226 247.473 146.836 249.28 146.056 250.788C145.302 252.296 144.301 253.453 143.053 254.259C141.805 255.065 140.44 255.468 138.958 255.468C138.074 255.468 137.164 255.273 136.228 254.883C135.292 254.467 134.33 253.895 133.342 253.167V263.463H131.626ZM138.88 253.947C140.154 253.947 141.272 253.583 142.234 252.855C143.222 252.127 143.989 251.126 144.535 249.852C145.107 248.552 145.393 247.057 145.393 245.367C145.393 243.833 145.198 242.468 144.808 241.272C144.418 240.05 143.781 239.088 142.897 238.386C142.039 237.684 140.895 237.333 139.465 237.333C138.529 237.333 137.554 237.606 136.54 238.152C135.552 238.672 134.486 239.426 133.342 240.414V251.529C134.408 252.413 135.409 253.037 136.345 253.401C137.307 253.765 138.152 253.947 138.88 253.947ZM159.587 255.468C157.559 255.468 156.142 254.883 155.336 253.713C154.556 252.543 154.166 251.022 154.166 249.15V238.659H151.358V236.241L154.322 236.046L154.712 230.742H157.403V236.046H162.512V238.659H157.403V249.189C157.403 250.359 157.611 251.269 158.027 251.919C158.469 252.543 159.236 252.855 160.328 252.855C160.666 252.855 161.03 252.803 161.42 252.699C161.81 252.569 162.161 252.452 162.473 252.348L163.097 254.766C162.577 254.948 162.005 255.104 161.381 255.234C160.783 255.39 160.185 255.468 159.587 255.468ZM171.498 255.468C169.912 255.468 168.586 255 167.52 254.064C166.48 253.102 165.96 251.776 165.96 250.086C165.96 248.006 166.883 246.42 168.729 245.328C170.601 244.21 173.552 243.43 177.582 242.988C177.582 242.182 177.465 241.415 177.231 240.687C177.023 239.959 176.633 239.374 176.061 238.932C175.515 238.464 174.722 238.23 173.682 238.23C172.59 238.23 171.563 238.438 170.601 238.854C169.639 239.27 168.781 239.738 168.027 240.258L166.779 238.035C167.663 237.463 168.742 236.917 170.016 236.397C171.316 235.851 172.72 235.578 174.228 235.578C176.542 235.578 178.219 236.293 179.259 237.723C180.299 239.127 180.819 241.012 180.819 243.378V255H178.167L177.894 252.738H177.777C176.893 253.466 175.918 254.103 174.852 254.649C173.812 255.195 172.694 255.468 171.498 255.468ZM172.434 252.894C173.344 252.894 174.202 252.673 175.008 252.231C175.814 251.789 176.672 251.165 177.582 250.359V245.094C174.436 245.484 172.226 246.069 170.952 246.849C169.704 247.629 169.08 248.63 169.08 249.852C169.08 250.918 169.405 251.698 170.055 252.192C170.705 252.66 171.498 252.894 172.434 252.894ZM196.337 255.468C195.453 255.468 194.53 255.26 193.568 254.844C192.632 254.402 191.748 253.804 190.916 253.05H190.799L190.526 255H187.952V227.232H191.15V234.798L191.072 238.23C191.93 237.476 192.866 236.852 193.88 236.358C194.92 235.838 195.96 235.578 197 235.578C199.47 235.578 201.342 236.449 202.616 238.191C203.89 239.933 204.527 242.273 204.527 245.211C204.527 247.369 204.137 249.215 203.357 250.749C202.603 252.283 201.602 253.453 200.354 254.259C199.132 255.065 197.793 255.468 196.337 255.468ZM195.791 252.777C197.351 252.777 198.638 252.114 199.652 250.788C200.692 249.436 201.212 247.59 201.212 245.25C201.212 243.17 200.822 241.493 200.042 240.219C199.288 238.919 198.014 238.269 196.22 238.269C195.414 238.269 194.595 238.49 193.763 238.932C192.931 239.374 192.06 240.011 191.15 240.843V250.788C191.982 251.516 192.801 252.036 193.607 252.348C194.439 252.634 195.167 252.777 195.791 252.777ZM214.072 255.468C212.876 255.468 212.005 255.104 211.459 254.376C210.939 253.622 210.679 252.556 210.679 251.178V227.232H213.877V251.412C213.877 251.906 213.968 252.27 214.15 252.504C214.332 252.712 214.54 252.816 214.774 252.816C214.878 252.816 214.969 252.816 215.047 252.816C215.151 252.79 215.294 252.764 215.476 252.738L215.905 255.156C215.697 255.26 215.45 255.338 215.164 255.39C214.878 255.442 214.514 255.468 214.072 255.468ZM229.472 255.468C227.782 255.468 226.248 255.078 224.87 254.298C223.492 253.492 222.4 252.348 221.594 250.866C220.788 249.384 220.385 247.616 220.385 245.562C220.385 243.482 220.788 241.701 221.594 240.219C222.426 238.737 223.492 237.593 224.792 236.787C226.092 235.981 227.457 235.578 228.887 235.578C231.305 235.578 233.164 236.384 234.464 237.996C235.79 239.608 236.453 241.766 236.453 244.47C236.453 244.808 236.44 245.146 236.414 245.484C236.414 245.796 236.388 246.069 236.336 246.303H223.544C223.674 248.305 224.298 249.904 225.416 251.1C226.56 252.296 228.042 252.894 229.862 252.894C230.772 252.894 231.604 252.764 232.358 252.504C233.138 252.218 233.879 251.854 234.581 251.412L235.712 253.518C234.906 254.038 233.983 254.493 232.943 254.883C231.929 255.273 230.772 255.468 229.472 255.468ZM223.505 244.002H233.645C233.645 242.078 233.229 240.622 232.397 239.634C231.591 238.62 230.447 238.113 228.965 238.113C227.639 238.113 226.443 238.633 225.377 239.673C224.337 240.687 223.713 242.13 223.505 244.002Z" fill="white" />
</svg>
  