<svg width="330" height="45" viewBox="0 0 330 45" fill="none" xmlns="http://www.w3.org/2000/svg">
<path d="M0 8C0 3.58172 3.58172 0 8 0H12.6699V12.6H0V8Z" fill="#004C79"/>
<path d="M16.165 0H36.9999C41.4182 0 45 3.58172 45 8V12.6H16.165V0Z" fill="#004C79"/>
<path d="M0 32.4H28.8349V45H8C3.58173 45 0 41.4183 0 37V32.4Z" fill="#004C79"/>
<path d="M32.3301 32.4H45V37C45 41.4183 41.4182 45 37 45H32.3301V32.4Z" fill="#004C79"/>
<rect x="32.3301" y="16.2001" width="12.6699" height="12.6" fill="#004C79"/>
<rect x="16.165" y="16.2001" width="12.6699" height="12.6" fill="#00CAF2"/>
<rect y="16.2001" width="12.6699" height="12.6" fill="#004C79"/>
<path d="M72.683 36.468C71.201 36.468 69.927 36.052 68.861 35.22C67.795 34.388 67.262 33.088 67.262 31.32C67.262 29.24 68.237 27.667 70.187 26.601C72.137 25.509 75.192 24.729 79.352 24.261C79.378 23.299 79.274 22.376 79.04 21.492C78.806 20.582 78.364 19.828 77.714 19.23C77.09 18.632 76.154 18.333 74.906 18.333C73.658 18.333 72.514 18.58 71.474 19.074C70.434 19.568 69.589 20.049 68.939 20.517L68.159 19.23C68.601 18.918 69.173 18.58 69.875 18.216C70.577 17.826 71.37 17.501 72.254 17.241C73.164 16.955 74.126 16.812 75.14 16.812C76.622 16.812 77.792 17.137 78.65 17.787C79.508 18.437 80.119 19.308 80.483 20.4C80.873 21.466 81.068 22.675 81.068 24.027V36H79.586L79.43 33.582H79.313C78.351 34.336 77.311 35.012 76.193 35.61C75.075 36.182 73.905 36.468 72.683 36.468ZM72.995 34.986C74.061 34.986 75.088 34.726 76.076 34.206C77.09 33.686 78.182 32.932 79.352 31.944V25.587C76.778 25.899 74.737 26.302 73.229 26.796C71.721 27.29 70.642 27.914 69.992 28.668C69.342 29.396 69.017 30.254 69.017 31.242C69.017 32.594 69.407 33.556 70.187 34.128C70.993 34.7 71.929 34.986 72.995 34.986ZM95.1162 36.468C92.7502 36.468 90.8652 35.623 89.4612 33.933C88.0572 32.243 87.3552 29.825 87.3552 26.679C87.3552 24.651 87.7322 22.909 88.4862 21.453C89.2662 19.971 90.2802 18.827 91.5282 18.021C92.8022 17.215 94.1802 16.812 95.6622 16.812C96.8062 16.812 97.7942 17.02 98.6262 17.436C99.4842 17.826 100.381 18.385 101.317 19.113L101.239 15.681V7.959H102.955V36H101.473L101.317 33.582H101.2C100.446 34.336 99.5492 35.012 98.5092 35.61C97.4952 36.182 96.3642 36.468 95.1162 36.468ZM95.3502 34.947C96.3902 34.947 97.3782 34.687 98.3142 34.167C99.2762 33.621 100.251 32.854 101.239 31.866V20.751C100.251 19.867 99.3152 19.243 98.4312 18.879C97.5732 18.515 96.6892 18.333 95.7792 18.333C94.5312 18.333 93.4132 18.71 92.4252 19.464C91.4372 20.192 90.6442 21.18 90.0462 22.428C89.4742 23.676 89.1882 25.093 89.1882 26.679C89.1882 29.149 89.7212 31.151 90.7872 32.685C91.8532 34.193 93.3742 34.947 95.3502 34.947ZM115.394 36.468C113.912 36.468 112.638 36.052 111.572 35.22C110.506 34.388 109.973 33.088 109.973 31.32C109.973 29.24 110.948 27.667 112.898 26.601C114.848 25.509 117.903 24.729 122.063 24.261C122.089 23.299 121.985 22.376 121.751 21.492C121.517 20.582 121.075 19.828 120.425 19.23C119.801 18.632 118.865 18.333 117.617 18.333C116.369 18.333 115.225 18.58 114.185 19.074C113.145 19.568 112.3 20.049 111.65 20.517L110.87 19.23C111.312 18.918 111.884 18.58 112.586 18.216C113.288 17.826 114.081 17.501 114.965 17.241C115.875 16.955 116.837 16.812 117.851 16.812C119.333 16.812 120.503 17.137 121.361 17.787C122.219 18.437 122.83 19.308 123.194 20.4C123.584 21.466 123.779 22.675 123.779 24.027V36H122.297L122.141 33.582H122.024C121.062 34.336 120.022 35.012 118.904 35.61C117.786 36.182 116.616 36.468 115.394 36.468ZM115.706 34.986C116.772 34.986 117.799 34.726 118.787 34.206C119.801 33.686 120.893 32.932 122.063 31.944V25.587C119.489 25.899 117.448 26.302 115.94 26.796C114.432 27.29 113.353 27.914 112.703 28.668C112.053 29.396 111.728 30.254 111.728 31.242C111.728 32.594 112.118 33.556 112.898 34.128C113.704 34.7 114.64 34.986 115.706 34.986ZM131.626 44.463V17.28H133.108L133.264 19.62H133.381C134.291 18.892 135.292 18.242 136.384 17.67C137.476 17.098 138.594 16.812 139.738 16.812C142.234 16.812 144.106 17.683 145.354 19.425C146.602 21.141 147.226 23.455 147.226 26.367C147.226 28.473 146.836 30.28 146.056 31.788C145.302 33.296 144.301 34.453 143.053 35.259C141.805 36.065 140.44 36.468 138.958 36.468C138.074 36.468 137.164 36.273 136.228 35.883C135.292 35.467 134.33 34.895 133.342 34.167V44.463H131.626ZM138.88 34.947C140.154 34.947 141.272 34.583 142.234 33.855C143.222 33.127 143.989 32.126 144.535 30.852C145.107 29.552 145.393 28.057 145.393 26.367C145.393 24.833 145.198 23.468 144.808 22.272C144.418 21.05 143.781 20.088 142.897 19.386C142.039 18.684 140.895 18.333 139.465 18.333C138.529 18.333 137.554 18.606 136.54 19.152C135.552 19.672 134.486 20.426 133.342 21.414V32.529C134.408 33.413 135.409 34.037 136.345 34.401C137.307 34.765 138.152 34.947 138.88 34.947ZM159.587 36.468C157.559 36.468 156.142 35.883 155.336 34.713C154.556 33.543 154.166 32.022 154.166 30.15V19.659H151.358V17.241L154.322 17.046L154.712 11.742H157.403V17.046H162.512V19.659H157.403V30.189C157.403 31.359 157.611 32.269 158.027 32.919C158.469 33.543 159.236 33.855 160.328 33.855C160.666 33.855 161.03 33.803 161.42 33.699C161.81 33.569 162.161 33.452 162.473 33.348L163.097 35.766C162.577 35.948 162.005 36.104 161.381 36.234C160.783 36.39 160.185 36.468 159.587 36.468ZM171.498 36.468C169.912 36.468 168.586 36 167.52 35.064C166.48 34.102 165.96 32.776 165.96 31.086C165.96 29.006 166.883 27.42 168.729 26.328C170.601 25.21 173.552 24.43 177.582 23.988C177.582 23.182 177.465 22.415 177.231 21.687C177.023 20.959 176.633 20.374 176.061 19.932C175.515 19.464 174.722 19.23 173.682 19.23C172.59 19.23 171.563 19.438 170.601 19.854C169.639 20.27 168.781 20.738 168.027 21.258L166.779 19.035C167.663 18.463 168.742 17.917 170.016 17.397C171.316 16.851 172.72 16.578 174.228 16.578C176.542 16.578 178.219 17.293 179.259 18.723C180.299 20.127 180.819 22.012 180.819 24.378V36H178.167L177.894 33.738H177.777C176.893 34.466 175.918 35.103 174.852 35.649C173.812 36.195 172.694 36.468 171.498 36.468ZM172.434 33.894C173.344 33.894 174.202 33.673 175.008 33.231C175.814 32.789 176.672 32.165 177.582 31.359V26.094C174.436 26.484 172.226 27.069 170.952 27.849C169.704 28.629 169.08 29.63 169.08 30.852C169.08 31.918 169.405 32.698 170.055 33.192C170.705 33.66 171.498 33.894 172.434 33.894ZM196.337 36.468C195.453 36.468 194.53 36.26 193.568 35.844C192.632 35.402 191.748 34.804 190.916 34.05H190.799L190.526 36H187.952V8.232H191.15V15.798L191.072 19.23C191.93 18.476 192.866 17.852 193.88 17.358C194.92 16.838 195.96 16.578 197 16.578C199.47 16.578 201.342 17.449 202.616 19.191C203.89 20.933 204.527 23.273 204.527 26.211C204.527 28.369 204.137 30.215 203.357 31.749C202.603 33.283 201.602 34.453 200.354 35.259C199.132 36.065 197.793 36.468 196.337 36.468ZM195.791 33.777C197.351 33.777 198.638 33.114 199.652 31.788C200.692 30.436 201.212 28.59 201.212 26.25C201.212 24.17 200.822 22.493 200.042 21.219C199.288 19.919 198.014 19.269 196.22 19.269C195.414 19.269 194.595 19.49 193.763 19.932C192.931 20.374 192.06 21.011 191.15 21.843V31.788C191.982 32.516 192.801 33.036 193.607 33.348C194.439 33.634 195.167 33.777 195.791 33.777ZM214.072 36.468C212.876 36.468 212.005 36.104 211.459 35.376C210.939 34.622 210.679 33.556 210.679 32.178V8.232H213.877V32.412C213.877 32.906 213.968 33.27 214.15 33.504C214.332 33.712 214.54 33.816 214.774 33.816C214.878 33.816 214.969 33.816 215.047 33.816C215.151 33.79 215.294 33.764 215.476 33.738L215.905 36.156C215.697 36.26 215.45 36.338 215.164 36.39C214.878 36.442 214.514 36.468 214.072 36.468ZM229.472 36.468C227.782 36.468 226.248 36.078 224.87 35.298C223.492 34.492 222.4 33.348 221.594 31.866C220.788 30.384 220.385 28.616 220.385 26.562C220.385 24.482 220.788 22.701 221.594 21.219C222.426 19.737 223.492 18.593 224.792 17.787C226.092 16.981 227.457 16.578 228.887 16.578C231.305 16.578 233.164 17.384 234.464 18.996C235.79 20.608 236.453 22.766 236.453 25.47C236.453 25.808 236.44 26.146 236.414 26.484C236.414 26.796 236.388 27.069 236.336 27.303H223.544C223.674 29.305 224.298 30.904 225.416 32.1C226.56 33.296 228.042 33.894 229.862 33.894C230.772 33.894 231.604 33.764 232.358 33.504C233.138 33.218 233.879 32.854 234.581 32.412L235.712 34.518C234.906 35.038 233.983 35.493 232.943 35.883C231.929 36.273 230.772 36.468 229.472 36.468ZM223.505 25.002H233.645C233.645 23.078 233.229 21.622 232.397 20.634C231.591 19.62 230.447 19.113 228.965 19.113C227.639 19.113 226.443 19.633 225.377 20.673C224.337 21.687 223.713 23.13 223.505 25.002ZM256.784 36.468C254.964 36.468 253.729 35.948 253.079 34.908C252.429 33.842 252.104 32.477 252.104 30.813V18.762H249.179V17.436L252.143 17.28L252.377 11.859H253.859V17.28H259.28V18.762H253.859V30.969C253.859 32.165 254.067 33.127 254.483 33.855C254.899 34.583 255.744 34.947 257.018 34.947C257.382 34.947 257.772 34.895 258.188 34.791C258.63 34.661 259.02 34.518 259.358 34.362L259.826 35.766C259.28 35.948 258.721 36.104 258.149 36.234C257.603 36.39 257.148 36.468 256.784 36.468ZM271.4 36.468C269.918 36.468 268.54 36.091 267.266 35.337C265.992 34.557 264.965 33.439 264.185 31.983C263.405 30.501 263.015 28.733 263.015 26.679C263.015 24.573 263.405 22.792 264.185 21.336C264.965 19.854 265.992 18.736 267.266 17.982C268.54 17.202 269.918 16.812 271.4 16.812C272.908 16.812 274.299 17.202 275.573 17.982C276.847 18.736 277.874 19.854 278.654 21.336C279.434 22.792 279.824 24.573 279.824 26.679C279.824 28.733 279.434 30.501 278.654 31.983C277.874 33.439 276.847 34.557 275.573 35.337C274.299 36.091 272.908 36.468 271.4 36.468ZM271.4 34.947C272.674 34.947 273.805 34.596 274.793 33.894C275.781 33.192 276.561 32.23 277.133 31.008C277.731 29.76 278.03 28.317 278.03 26.679C278.03 25.015 277.731 23.559 277.133 22.311C276.561 21.063 275.781 20.088 274.793 19.386C273.805 18.684 272.674 18.333 271.4 18.333C270.152 18.333 269.021 18.684 268.007 19.386C267.019 20.088 266.239 21.063 265.667 22.311C265.095 23.559 264.809 25.015 264.809 26.679C264.809 28.317 265.095 29.76 265.667 31.008C266.239 32.23 267.019 33.192 268.007 33.894C269.021 34.596 270.152 34.947 271.4 34.947ZM293.441 36.468C291.959 36.468 290.581 36.091 289.307 35.337C288.033 34.557 287.006 33.439 286.226 31.983C285.446 30.501 285.056 28.733 285.056 26.679C285.056 24.573 285.446 22.792 286.226 21.336C287.006 19.854 288.033 18.736 289.307 17.982C290.581 17.202 291.959 16.812 293.441 16.812C294.949 16.812 296.34 17.202 297.614 17.982C298.888 18.736 299.915 19.854 300.695 21.336C301.475 22.792 301.865 24.573 301.865 26.679C301.865 28.733 301.475 30.501 300.695 31.983C299.915 33.439 298.888 34.557 297.614 35.337C296.34 36.091 294.949 36.468 293.441 36.468ZM293.441 34.947C294.715 34.947 295.846 34.596 296.834 33.894C297.822 33.192 298.602 32.23 299.174 31.008C299.772 29.76 300.071 28.317 300.071 26.679C300.071 25.015 299.772 23.559 299.174 22.311C298.602 21.063 297.822 20.088 296.834 19.386C295.846 18.684 294.715 18.333 293.441 18.333C292.193 18.333 291.062 18.684 290.048 19.386C289.06 20.088 288.28 21.063 287.708 22.311C287.136 23.559 286.85 25.015 286.85 26.679C286.85 28.317 287.136 29.76 287.708 31.008C288.28 32.23 289.06 33.192 290.048 33.894C291.062 34.596 292.193 34.947 293.441 34.947ZM310.958 36.468C309.424 36.468 308.657 35.48 308.657 33.504V7.959H310.373V33.738C310.373 34.544 310.646 34.947 311.192 34.947C311.27 34.947 311.361 34.947 311.465 34.947C311.569 34.921 311.712 34.895 311.894 34.869L312.206 36.273C312.024 36.325 311.842 36.364 311.66 36.39C311.478 36.442 311.244 36.468 310.958 36.468ZM323.606 36.468C322.228 36.468 320.941 36.221 319.745 35.727C318.575 35.207 317.574 34.596 316.742 33.894L317.756 32.607C318.562 33.257 319.42 33.816 320.33 34.284C321.24 34.752 322.371 34.986 323.723 34.986C325.179 34.986 326.284 34.622 327.038 33.894C327.792 33.14 328.169 32.269 328.169 31.281C328.169 30.501 327.935 29.851 327.467 29.331C326.999 28.811 326.414 28.382 325.712 28.044C325.036 27.706 324.334 27.407 323.606 27.147C322.67 26.809 321.747 26.432 320.837 26.016C319.953 25.6 319.225 25.067 318.653 24.417C318.081 23.741 317.795 22.87 317.795 21.804C317.795 20.426 318.302 19.256 319.316 18.294C320.356 17.306 321.851 16.812 323.801 16.812C324.815 16.812 325.79 16.994 326.726 17.358C327.688 17.722 328.507 18.19 329.183 18.762L328.247 19.971C327.597 19.503 326.921 19.113 326.219 18.801C325.517 18.463 324.698 18.294 323.762 18.294C322.306 18.294 321.227 18.645 320.525 19.347C319.849 20.049 319.511 20.829 319.511 21.687C319.511 22.389 319.706 22.974 320.096 23.442C320.512 23.91 321.045 24.3 321.695 24.612C322.371 24.898 323.073 25.184 323.801 25.47C324.789 25.834 325.751 26.224 326.687 26.64C327.623 27.056 328.39 27.615 328.988 28.317C329.612 29.019 329.924 29.981 329.924 31.203C329.924 32.139 329.677 33.01 329.183 33.816C328.689 34.596 327.974 35.233 327.038 35.727C326.102 36.221 324.958 36.468 323.606 36.468Z" fill="#004C79"/>
</svg>
