<svg width="237" height="45" viewBox="0 0 237 45" fill="none" xmlns="http://www.w3.org/2000/svg">
<path d="M0 8C0 3.58172 3.58172 0 8 0H12.6699V12.6H0V8Z" fill="white"/>
<path d="M16.165 0H36.9999C41.4182 0 45 3.58172 45 8V12.6H16.165V0Z" fill="white"/>
<path d="M0 32.4H28.8349V45H8C3.58173 45 0 41.4183 0 37V32.4Z" fill="white"/>
<path d="M32.3301 32.4H45V37C45 41.4183 41.4182 45 37 45H32.3301V32.4Z" fill="white"/>
<rect x="32.3301" y="16.2001" width="12.6699" height="12.6" fill="white"/>
<rect x="16.165" y="16.2001" width="12.6699" height="12.6" fill="#FF8C00"/>
<rect y="16.2001" width="12.6699" height="12.6" fill="white"/>
<path d="M72.683 34.468C71.201 34.468 69.927 34.052 68.861 33.22C67.795 32.388 67.262 31.088 67.262 29.32C67.262 27.24 68.237 25.667 70.187 24.601C72.137 23.509 75.192 22.729 79.352 22.261C79.378 21.299 79.274 20.376 79.04 19.492C78.806 18.582 78.364 17.828 77.714 17.23C77.09 16.632 76.154 16.333 74.906 16.333C73.658 16.333 72.514 16.58 71.474 17.074C70.434 17.568 69.589 18.049 68.939 18.517L68.159 17.23C68.601 16.918 69.173 16.58 69.875 16.216C70.577 15.826 71.37 15.501 72.254 15.241C73.164 14.955 74.126 14.812 75.14 14.812C76.622 14.812 77.792 15.137 78.65 15.787C79.508 16.437 80.119 17.308 80.483 18.4C80.873 19.466 81.068 20.675 81.068 22.027V34H79.586L79.43 31.582H79.313C78.351 32.336 77.311 33.012 76.193 33.61C75.075 34.182 73.905 34.468 72.683 34.468ZM72.995 32.986C74.061 32.986 75.088 32.726 76.076 32.206C77.09 31.686 78.182 30.932 79.352 29.944V23.587C76.778 23.899 74.737 24.302 73.229 24.796C71.721 25.29 70.642 25.914 69.992 26.668C69.342 27.396 69.017 28.254 69.017 29.242C69.017 30.594 69.407 31.556 70.187 32.128C70.993 32.7 71.929 32.986 72.995 32.986ZM95.1162 34.468C92.7502 34.468 90.8652 33.623 89.4612 31.933C88.0572 30.243 87.3552 27.825 87.3552 24.679C87.3552 22.651 87.7322 20.909 88.4862 19.453C89.2662 17.971 90.2802 16.827 91.5282 16.021C92.8022 15.215 94.1802 14.812 95.6622 14.812C96.8062 14.812 97.7942 15.02 98.6262 15.436C99.4842 15.826 100.381 16.385 101.317 17.113L101.239 13.681V5.959H102.955V34H101.473L101.317 31.582H101.2C100.446 32.336 99.5492 33.012 98.5092 33.61C97.4952 34.182 96.3642 34.468 95.1162 34.468ZM95.3502 32.947C96.3902 32.947 97.3782 32.687 98.3142 32.167C99.2762 31.621 100.251 30.854 101.239 29.866V18.751C100.251 17.867 99.3152 17.243 98.4312 16.879C97.5732 16.515 96.6892 16.333 95.7792 16.333C94.5312 16.333 93.4132 16.71 92.4252 17.464C91.4372 18.192 90.6442 19.18 90.0462 20.428C89.4742 21.676 89.1882 23.093 89.1882 24.679C89.1882 27.149 89.7212 29.151 90.7872 30.685C91.8532 32.193 93.3742 32.947 95.3502 32.947ZM115.394 34.468C113.912 34.468 112.638 34.052 111.572 33.22C110.506 32.388 109.973 31.088 109.973 29.32C109.973 27.24 110.948 25.667 112.898 24.601C114.848 23.509 117.903 22.729 122.063 22.261C122.089 21.299 121.985 20.376 121.751 19.492C121.517 18.582 121.075 17.828 120.425 17.23C119.801 16.632 118.865 16.333 117.617 16.333C116.369 16.333 115.225 16.58 114.185 17.074C113.145 17.568 112.3 18.049 111.65 18.517L110.87 17.23C111.312 16.918 111.884 16.58 112.586 16.216C113.288 15.826 114.081 15.501 114.965 15.241C115.875 14.955 116.837 14.812 117.851 14.812C119.333 14.812 120.503 15.137 121.361 15.787C122.219 16.437 122.83 17.308 123.194 18.4C123.584 19.466 123.779 20.675 123.779 22.027V34H122.297L122.141 31.582H122.024C121.062 32.336 120.022 33.012 118.904 33.61C117.786 34.182 116.616 34.468 115.394 34.468ZM115.706 32.986C116.772 32.986 117.799 32.726 118.787 32.206C119.801 31.686 120.893 30.932 122.063 29.944V23.587C119.489 23.899 117.448 24.302 115.94 24.796C114.432 25.29 113.353 25.914 112.703 26.668C112.053 27.396 111.728 28.254 111.728 29.242C111.728 30.594 112.118 31.556 112.898 32.128C113.704 32.7 114.64 32.986 115.706 32.986ZM131.626 42.463V15.28H133.108L133.264 17.62H133.381C134.291 16.892 135.292 16.242 136.384 15.67C137.476 15.098 138.594 14.812 139.738 14.812C142.234 14.812 144.106 15.683 145.354 17.425C146.602 19.141 147.226 21.455 147.226 24.367C147.226 26.473 146.836 28.28 146.056 29.788C145.302 31.296 144.301 32.453 143.053 33.259C141.805 34.065 140.44 34.468 138.958 34.468C138.074 34.468 137.164 34.273 136.228 33.883C135.292 33.467 134.33 32.895 133.342 32.167V42.463H131.626ZM138.88 32.947C140.154 32.947 141.272 32.583 142.234 31.855C143.222 31.127 143.989 30.126 144.535 28.852C145.107 27.552 145.393 26.057 145.393 24.367C145.393 22.833 145.198 21.468 144.808 20.272C144.418 19.05 143.781 18.088 142.897 17.386C142.039 16.684 140.895 16.333 139.465 16.333C138.529 16.333 137.554 16.606 136.54 17.152C135.552 17.672 134.486 18.426 133.342 19.414V30.529C134.408 31.413 135.409 32.037 136.345 32.401C137.307 32.765 138.152 32.947 138.88 32.947ZM159.587 34.468C157.559 34.468 156.142 33.883 155.336 32.713C154.556 31.543 154.166 30.022 154.166 28.15V17.659H151.358V15.241L154.322 15.046L154.712 9.742H157.403V15.046H162.512V17.659H157.403V28.189C157.403 29.359 157.611 30.269 158.027 30.919C158.469 31.543 159.236 31.855 160.328 31.855C160.666 31.855 161.03 31.803 161.42 31.699C161.81 31.569 162.161 31.452 162.473 31.348L163.097 33.766C162.577 33.948 162.005 34.104 161.381 34.234C160.783 34.39 160.185 34.468 159.587 34.468ZM171.498 34.468C169.912 34.468 168.586 34 167.52 33.064C166.48 32.102 165.96 30.776 165.96 29.086C165.96 27.006 166.883 25.42 168.729 24.328C170.601 23.21 173.552 22.43 177.582 21.988C177.582 21.182 177.465 20.415 177.231 19.687C177.023 18.959 176.633 18.374 176.061 17.932C175.515 17.464 174.722 17.23 173.682 17.23C172.59 17.23 171.563 17.438 170.601 17.854C169.639 18.27 168.781 18.738 168.027 19.258L166.779 17.035C167.663 16.463 168.742 15.917 170.016 15.397C171.316 14.851 172.72 14.578 174.228 14.578C176.542 14.578 178.219 15.293 179.259 16.723C180.299 18.127 180.819 20.012 180.819 22.378V34H178.167L177.894 31.738H177.777C176.893 32.466 175.918 33.103 174.852 33.649C173.812 34.195 172.694 34.468 171.498 34.468ZM172.434 31.894C173.344 31.894 174.202 31.673 175.008 31.231C175.814 30.789 176.672 30.165 177.582 29.359V24.094C174.436 24.484 172.226 25.069 170.952 25.849C169.704 26.629 169.08 27.63 169.08 28.852C169.08 29.918 169.405 30.698 170.055 31.192C170.705 31.66 171.498 31.894 172.434 31.894ZM196.337 34.468C195.453 34.468 194.53 34.26 193.568 33.844C192.632 33.402 191.748 32.804 190.916 32.05H190.799L190.526 34H187.952V6.232H191.15V13.798L191.072 17.23C191.93 16.476 192.866 15.852 193.88 15.358C194.92 14.838 195.96 14.578 197 14.578C199.47 14.578 201.342 15.449 202.616 17.191C203.89 18.933 204.527 21.273 204.527 24.211C204.527 26.369 204.137 28.215 203.357 29.749C202.603 31.283 201.602 32.453 200.354 33.259C199.132 34.065 197.793 34.468 196.337 34.468ZM195.791 31.777C197.351 31.777 198.638 31.114 199.652 29.788C200.692 28.436 201.212 26.59 201.212 24.25C201.212 22.17 200.822 20.493 200.042 19.219C199.288 17.919 198.014 17.269 196.22 17.269C195.414 17.269 194.595 17.49 193.763 17.932C192.931 18.374 192.06 19.011 191.15 19.843V29.788C191.982 30.516 192.801 31.036 193.607 31.348C194.439 31.634 195.167 31.777 195.791 31.777ZM214.072 34.468C212.876 34.468 212.005 34.104 211.459 33.376C210.939 32.622 210.679 31.556 210.679 30.178V6.232H213.877V30.412C213.877 30.906 213.968 31.27 214.15 31.504C214.332 31.712 214.54 31.816 214.774 31.816C214.878 31.816 214.969 31.816 215.047 31.816C215.151 31.79 215.294 31.764 215.476 31.738L215.905 34.156C215.697 34.26 215.45 34.338 215.164 34.39C214.878 34.442 214.514 34.468 214.072 34.468ZM229.472 34.468C227.782 34.468 226.248 34.078 224.87 33.298C223.492 32.492 222.4 31.348 221.594 29.866C220.788 28.384 220.385 26.616 220.385 24.562C220.385 22.482 220.788 20.701 221.594 19.219C222.426 17.737 223.492 16.593 224.792 15.787C226.092 14.981 227.457 14.578 228.887 14.578C231.305 14.578 233.164 15.384 234.464 16.996C235.79 18.608 236.453 20.766 236.453 23.47C236.453 23.808 236.44 24.146 236.414 24.484C236.414 24.796 236.388 25.069 236.336 25.303H223.544C223.674 27.305 224.298 28.904 225.416 30.1C226.56 31.296 228.042 31.894 229.862 31.894C230.772 31.894 231.604 31.764 232.358 31.504C233.138 31.218 233.879 30.854 234.581 30.412L235.712 32.518C234.906 33.038 233.983 33.493 232.943 33.883C231.929 34.273 230.772 34.468 229.472 34.468ZM223.505 23.002H233.645C233.645 21.078 233.229 19.622 232.397 18.634C231.591 17.62 230.447 17.113 228.965 17.113C227.639 17.113 226.443 17.633 225.377 18.673C224.337 19.687 223.713 21.13 223.505 23.002Z" fill="white"/>
</svg>
